<svg width="39" height="23" viewBox="0 0 39 23" fill="none" xmlns="http://www.w3.org/2000/svg">
<path d="M39 2.5C39 1.11929 37.8807 0 36.5 0H2.5C1.11929 0 0 1.11929 0 2.5C0 3.88071 1.11929 5 2.5 5H36.5C37.8807 5 39 3.88071 39 2.5Z" fill="#243768"/>
<path d="M39 11.5C39 10.1193 37.8807 9 36.5 9H2.5C1.11929 9 0 10.1193 0 11.5C0 12.8807 1.11929 14 2.5 14H36.5C37.8807 14 39 12.8807 39 11.5Z" fill="#243768"/>
<path d="M39 20.5C39 19.1193 37.8807 18 36.5 18H2.5C1.11929 18 0 19.1193 0 20.5C0 21.8807 1.11929 23 2.5 23H36.5C37.8807 23 39 21.8807 39 20.5Z" fill="#243768"/>
</svg>
